<svg width="156" height="40" viewBox="0 0 156 40" fill="none" xmlns="http://www.w3.org/2000/svg">
<g clip-path="url(#clip0_6_30)">
<path fill-rule="evenodd" clip-rule="evenodd" d="M99.7969 2.40639C99.7969 3.73019 101.118 4.81279 102.718 4.81279C104.319 4.81279 105.64 3.73019 105.64 2.40639C105.64 1.0826 104.319 0 102.718 0C101.118 0 99.7969 1.0826 99.7969 2.40639ZM100.194 8.54298V30.1613H105.237V8.54298H100.194ZM60.5403 30.5652C59.2195 30.5652 57.6188 30.4025 56.5386 30.122V38.7828H51.5352V9.54706C53.897 8.58226 56.8968 8.06059 60.0982 8.06059C67.581 8.06059 71.8234 12.1947 71.8234 19.0492C71.8234 25.9038 67.7042 30.5595 60.5403 30.5595V30.5652ZM59.9415 10.9101C58.5423 10.9101 57.3782 11.0728 56.5386 11.4318V27.3566C57.4173 27.5978 58.5423 27.7156 59.5777 27.7156C64.2174 27.7156 66.7415 24.5856 66.7415 19.2119C66.7415 13.8382 64.8218 10.9101 59.9415 10.9101ZM85.7035 30.6437C79.4661 30.6425 75.3829 28.6342 75.3829 24.064C75.3829 18.2471 82.0262 16.7214 89.8673 16.0819V14.8815C89.8673 12.032 87.9868 10.9887 84.6623 10.9887C82.4236 10.9887 79.9386 11.4711 78.0189 12.2339L76.8996 9.54706C79.3789 8.58226 82.2613 8.06059 85.222 8.06059C91.0258 8.06059 94.6245 10.1473 94.6245 15.4817V29.1572C92.3871 30.1215 89.1042 30.6431 85.7035 30.6437ZM89.8729 18.292C84.069 18.8529 80.1905 19.7784 80.1905 23.9462C80.1905 26.7116 82.4292 27.9568 85.8712 27.9568C87.3543 27.9568 88.8319 27.7549 89.8729 27.3174V18.292ZM119.804 30.5652C118.483 30.5652 116.882 30.4025 115.802 30.122V38.7828H110.799V9.54706C113.161 8.58226 116.161 8.06059 119.362 8.06059C126.845 8.06059 131.087 12.1947 131.087 19.0492C131.087 25.9038 126.962 30.5595 119.804 30.5595V30.5652ZM119.202 10.9101C117.804 10.9104 116.641 11.0731 115.802 11.4318V27.3566C116.681 27.5978 117.806 27.7156 118.841 27.7156C123.487 27.7156 126.005 24.5856 126.005 19.2119C126.005 13.8391 124.086 10.9111 119.202 10.9101ZM119.202 10.9101C119.203 10.9101 119.204 10.9101 119.205 10.9101H119.2C119.2 10.9101 119.201 10.9101 119.202 10.9101ZM147.291 27.4352C143.172 27.4352 140.25 25.3092 139.808 21.0574L155.893 18.9707C155.893 11.7908 152.171 8.06059 145.69 8.06059C139.209 8.06059 134.805 11.7123 134.805 19.2512C134.805 26.7901 139.528 30.6437 146.692 30.6437C149.77 30.6437 152.692 30.122 155.015 29.1179L153.856 26.1899C152.093 26.9528 149.614 27.4352 147.291 27.4352ZM139.45 18.4098C139.45 13.4792 141.974 10.8316 145.455 10.8316L145.45 10.826C148.892 10.826 150.974 12.8734 150.974 17.1645L139.45 18.651V18.4098Z" className="svg-text-color"/>
<path d="M9.36336 20.6984C11.6244 20.704 13.3091 19.7728 14.3389 17.731C14.8985 16.626 15.475 15.5322 15.9787 14.3991C16.7791 12.6153 18.0495 11.471 19.8293 11.1176C20.1651 11.0559 20.5233 11.0223 20.8983 11.0223L27.3177 11.0111C29.9818 11.0111 32.1365 13.1763 32.1365 15.8463C32.1365 18.5163 29.9762 20.6815 27.3177 20.6815H21.9449C21.5643 20.6815 18.626 20.5581 17.0757 24.0247C16.5776 25.1409 16.0011 26.2291 15.4526 27.3229C14.434 29.3479 12.7662 30.2734 10.5275 30.2622C7.45487 30.251 3.86176 30.2622 3.86176 30.2622C1.73499 30.2622 0.00559675 31.9843 0.00559675 34.1158V36.1408C0.00559675 38.2667 1.7294 39.9944 3.86176 39.9944H6.86161C8.88764 39.9495 10.3428 39.0801 11.2719 37.2851C11.9043 36.0679 12.5087 34.8338 13.0908 33.5886C14.6971 30.1669 17.6298 30.2566 18.0831 30.2566H27.2114C35.1868 30.2566 41.8021 23.862 41.8581 15.8687C41.9197 7.80815 35.4162 1.26208 27.3905 1.26208H24.9951C22.9187 1.28452 21.43 2.15397 20.4841 3.97699C19.8517 5.19421 19.2472 6.42826 18.6652 7.67353C17.7641 9.59191 16.2977 10.7306 14.171 10.9157C13.6673 10.9606 8.7757 10.9438 8.7757 10.9438H3.85616C1.7294 10.9438 0 12.677 0 14.8086V16.8391C0 18.9707 1.7238 20.704 3.85616 20.704H9.36336V20.6984Z" fill="#00B2A9"/>
</g>
<defs>
<clipPath id="clip0_6_30">
<rect width="155.897" height="40" fill="white"/>
</clipPath>
</defs>
</svg>
